<mxfile host="app.diagrams.net" modified="2023-04-01T16:52:34.811Z" agent="Mozilla/5.0 (Windows NT 10.0; Win64; x64) AppleWebKit/537.36 (KHTML, like Gecko) Chrome/111.0.0.0 Safari/537.36" version="21.1.2" etag="5POaISy1VjUDZJ0OPmXr" type="github">
  <diagram name="Page-1" id="FcqU7fGfywIyX-zWp6vl">
    <mxGraphModel>
      <root>
        <mxCell id="0" />
        <mxCell id="1" parent="0" />
      </root>
    </mxGraphModel>
  </diagram>
</mxfile>
